<svg xmlns="http://www.w3.org/2000/svg" width="1100" height="590" viewBox="0 0 1100 590"><rect width="100%" height="100%" fill="#f4f7fa"/><g font-family="Segoe UI,Arial,sans-serif" fill="#122235"><text x="32" y="40" font-size="23">F-TRACE2 application / saved native evidence</text><text x="32" y="74" font-size="12">Application function wall (blue); each bar has its own origin. Open records are not returns.</text><text x="32" y="110" font-size="14">micro_first.call: 0.0022857 s</text><rect x="500" y="98" width="0.08" height="15" fill="#287ca3"/><text x="32" y="145" font-size="14">micro_first.synchronize: 14.53008 s</text><rect x="500" y="133" width="499.10" height="15" fill="#287ca3"/><text x="32" y="180" font-size="14">micro_first.ready_only: 9.120001e-05 s</text><rect x="500" y="168" width="0.00" height="15" fill="#287ca3"/><text x="32" y="215" font-size="14">micro_repeat.call: 0.0001404 s</text><rect x="500" y="203" width="0.00" height="15" fill="#287ca3"/><text x="32" y="250" font-size="14">micro_repeat.synchronize: 15.42957 s</text><rect x="500" y="238" width="530.00" height="15" fill="#287ca3"/><text x="32" y="285" font-size="14">profiler.start: 0.0133918 s</text><rect x="500" y="273" width="0.46" height="15" fill="#287ca3"/><text x="32" y="320" font-size="14">profiler.stop: 11.81018 s</text><rect x="500" y="308" width="405.68" height="15" fill="#287ca3"/><text x="32" y="386" font-size="13">Native call-window coverage (green) uses only the native clock; grey is unobserved/unknown.</text><text x="32" y="430" font-size="14">micro_first</text><rect x="500" y="417" width="530" height="18" fill="#d2d6db"/><text x="500" y="452" font-size="12">unknown / no complete current-module observation gate</text><text x="32" y="485" font-size="14">micro_repeat</text><rect x="500" y="472" width="530" height="18" fill="#d2d6db"/><text x="500" y="507" font-size="12">unknown / no complete current-module observation gate</text><text x="32" y="552" font-size="12">Native and monotonic clocks are not origin-aligned; producer intervals are not exclusive compute time.</text></g></svg>